# xmcd
#
# Track frame offsets:
#	150
#	17164
#	35663
#	55232
#	75722
#	94394
#	111637
#	134593
#	151862
#	169519
#	187464
#	205665
#
# Disc length: 2996 seconds
#
# Revision: 0
# Processed by: cddbd v1.5.1PL0 Copyright (c) Steve Scherf et al.
# Submitted via: dBpowerAMP V4.0
#
DISCID=ab0bb20c
DTITLE=Thalia - Thalia
DYEAR=2002
DGENRE=Latin
TTITLE0=Tu y Yo
TTITLE1=Asi es el destino
TTITLE2=En la Fiesta Mando Yo
TTITLE3=No me enseñaste
TTITLE4=Y Seguir
TTITLE5=A quien le importa
TTITLE6=Vueltas en el Aire
TTITLE7=Heridas en el Alma
TTITLE8=La Loca
TTITLE9=The Mexicans 2002
TTITLE10=Closer to you
TTITLE11=You spin 'round
EXTD=Thalia (singer]\nThalia (album name]\n2002\nmy name - Sandiana\nMexico
EXTT0=
EXTT1=
EXTT2=
EXTT3=
EXTT4=
EXTT5=
EXTT6=
EXTT7=
EXTT8=
EXTT9=
EXTT10=
EXTT11=
PLAYORDER=
